# xmcd
#
# Track frame offsets:
# 150
# 22806
# 44329
# 73791
# 102735
#
# Disc length: 1767 seconds
#
# Revision: 0
# Processed by: cddbd v1.5.2PL0 Copyright (c) Steve Scherf et al.
# Submitted via: Audion 3.0.2 (http://www.panic.com/audion/)
#
DISCID=3f06e505
DTITLE=NJIA YA HAKI - WATEULE WAPYA
DYEAR=1900
DGENRE=
TTITLE0=UUMBAJI
TTITLE1=NJIA POTOVU
TTITLE2=PASSAKA TUKUFU
TTITLE3=NEEMA ZA MARIAMU
TTITLE4=PASSAKA TUKUFU
EXTD=
EXTT0=
EXTT1=
EXTT2=
EXTT3=
EXTT4=
PLAYORDER=
